<svg xmlns="http://www.w3.org/2000/svg" viewBox="0 0 737.01 340.16" width="172">
  <g id="Fixed_Blip" data-name="Fixed Blip">
    <path d="M119.05,181.41a51,51,0,1,0,51,51,51,51,0,0,0-51-51" fill="#fabb00"></path>
    <path d="M170.09,56.69c-18.75,0-59.41,2.65-113.39,56.63v79.43c56.69-56.68,110.25-56.69,113.39-56.69V56.69" fill="#00305e"></path>
  </g>
  <g id="Fixed_Typo" data-name="Fixed Typo">
    <path d="M250.37,136.06h-5.26V106.83h-13v29.23h-5.26V79.41h5.26V102h13V79.41h5.26Z" fill="#00305e"></path>
    <path d="M268.09,96.92a8.29,8.29,0,0,1,6,2.1,13.49,13.49,0,0,1,3.31,5.15,24.8,24.8,0,0,1,1.43,6.4q.3,3.42.3,6.12t-.3,6.16a24.82,24.82,0,0,1-1.43,6.5,13.49,13.49,0,0,1-3.31,5.15,9.65,9.65,0,0,1-12,0,13.59,13.59,0,0,1-3.3-5.15,24.43,24.43,0,0,1-1.43-6.5q-.3-3.45-.3-6.16t.3-6.12a24.4,24.4,0,0,1,1.43-6.46,13.59,13.59,0,0,1,3.3-5.15A8.3,8.3,0,0,1,268.09,96.92Zm0,4.58a3.82,3.82,0,0,0-2.48.86,6.31,6.31,0,0,0-1.69,2.26,15.44,15.44,0,0,0-1,3.12c-.25,1.15-.44,2.29-.57,3.41s-.2,2.2-.22,3.2,0,1.8,0,2.4c0,1,0,2.28.11,4a29.12,29.12,0,0,0,.68,5.08,13.34,13.34,0,0,0,1.8,4.39,4.05,4.05,0,0,0,6.84,0,12.92,12.92,0,0,0,1.8-4.39,28.19,28.19,0,0,0,.68-5.08c.08-1.7.11-3,.11-4q0-.9,0-2.4c0-1-.11-2.07-.23-3.2s-.31-2.26-.56-3.41a14.83,14.83,0,0,0-1-3.12,6.19,6.19,0,0,0-1.69-2.26A3.82,3.82,0,0,0,268.09,101.5Z" fill="#00305e"></path>
    <path d="M300.6,104.05a11.73,11.73,0,0,0-2.06-1.76,4.5,4.5,0,0,0-2.6-.79,4.45,4.45,0,0,0-3.75,1.77,12.71,12.71,0,0,0-2.07,4.24,24.85,24.85,0,0,0-.9,5.11c-.13,1.75-.19,3.18-.19,4.28,0,.95.08,2.28.23,4a28.62,28.62,0,0,0,.9,5,13.41,13.41,0,0,0,2,4.32,4.09,4.09,0,0,0,3.49,1.84A3.92,3.92,0,0,0,298.5,131a13.29,13.29,0,0,0,1.95-2.37h.15v6.09a7.77,7.77,0,0,1-2.59,1.43,9.21,9.21,0,0,1-3,.52,7.53,7.53,0,0,1-5.44-2.06,15,15,0,0,1-3.39-5,25.44,25.44,0,0,1-1.72-6.24,39.56,39.56,0,0,1-.49-5.78c0-1.2.05-2.56.15-4.06a35.76,35.76,0,0,1,.6-4.54A30,30,0,0,1,286,104.5a15.2,15.2,0,0,1,2-3.86,9.69,9.69,0,0,1,3-2.71,8.36,8.36,0,0,1,4.25-1,10.5,10.5,0,0,1,2.74.37,9.52,9.52,0,0,1,2.59,1.13Z" fill="#00305e"></path>
    <path d="M310.76,100.6a11.32,11.32,0,0,1,3.42-2.71,9.07,9.07,0,0,1,4.17-1,7.11,7.11,0,0,1,4.13,1,6.33,6.33,0,0,1,2.22,2.7,12.53,12.53,0,0,1,.9,3.72c.12,1.38.19,2.74.19,4.1v27.57H320.9V109.31a18.75,18.75,0,0,0-.79-6.46c-.52-1.3-1.71-1.95-3.56-1.95a4.83,4.83,0,0,0-3.27,1,6.13,6.13,0,0,0-1.73,2.56,11.73,11.73,0,0,0-.68,3.3c-.07,1.18-.11,2.27-.11,3.27v25h-4.88V76h4.88Z" fill="#00305e"></path>
    <path d="M347.39,105.41h-.15a11.61,11.61,0,0,0-2.71-2.71,6.12,6.12,0,0,0-3.68-1.2,4.47,4.47,0,0,0-3.49,1.46,5.27,5.27,0,0,0-1.32,3.65,6.09,6.09,0,0,0,.53,2.52A8.58,8.58,0,0,0,338,111.3a16.07,16.07,0,0,0,2,1.92c.76.6,1.51,1.23,2.26,1.88s1.58,1.33,2.33,2a13.85,13.85,0,0,1,2,2.33,12.25,12.25,0,0,1,1.39,2.78,10.2,10.2,0,0,1,.53,3.38,12.18,12.18,0,0,1-.76,4.32,10.88,10.88,0,0,1-2.1,3.49,9.63,9.63,0,0,1-3.31,2.37,10.72,10.72,0,0,1-4.35.86,9.84,9.84,0,0,1-3.68-.75A13.1,13.1,0,0,1,331,134v-5.71a19.17,19.17,0,0,0,3,2.63,6.48,6.48,0,0,0,3.8,1.13,5.22,5.22,0,0,0,4.09-1.73,6,6,0,0,0,1.54-4.13,6.8,6.8,0,0,0-.52-2.67,10.88,10.88,0,0,0-1.39-2.33,17.77,17.77,0,0,0-2-2.1c-.75-.68-1.52-1.37-2.33-2.07s-1.5-1.35-2.25-2.1a19.59,19.59,0,0,1-2-2.37,10.73,10.73,0,0,1-1.43-2.67,9.05,9.05,0,0,1-.52-3.15,9.8,9.8,0,0,1,2.63-7.1,9.22,9.22,0,0,1,7-2.74,9.47,9.47,0,0,1,3.56.67,13.56,13.56,0,0,1,3.2,1.81Z" fill="#00305e"></path>
    <path d="M369.47,104.05a11.45,11.45,0,0,0-2.07-1.76,4.77,4.77,0,0,0-6.34,1,12.34,12.34,0,0,0-2.07,4.24,24.2,24.2,0,0,0-.9,5.11c-.13,1.75-.19,3.18-.19,4.28,0,.95.08,2.28.23,4a28.62,28.62,0,0,0,.9,5,13.41,13.41,0,0,0,2,4.32,4.07,4.07,0,0,0,3.49,1.84,3.94,3.94,0,0,0,2.86-1.09,13.29,13.29,0,0,0,1.95-2.37h.15v6.09a7.87,7.87,0,0,1-2.59,1.43,9.21,9.21,0,0,1-3,.52,7.57,7.57,0,0,1-5.45-2.06,15.17,15.17,0,0,1-3.38-5,25.9,25.9,0,0,1-1.73-6.24,40.84,40.84,0,0,1-.48-5.78c0-1.2.05-2.56.15-4.06a35.76,35.76,0,0,1,.6-4.54,30,30,0,0,1,1.24-4.48,14.89,14.89,0,0,1,2-3.86,9.58,9.58,0,0,1,3-2.71,8.36,8.36,0,0,1,4.25-1,10.5,10.5,0,0,1,2.74.37,9.52,9.52,0,0,1,2.59,1.13Z" fill="#00305e"></path>
    <path d="M379.63,100.6a11.32,11.32,0,0,1,3.42-2.71,9.07,9.07,0,0,1,4.17-1,7.11,7.11,0,0,1,4.13,1,6.33,6.33,0,0,1,2.22,2.7,12.53,12.53,0,0,1,.9,3.72c.12,1.38.19,2.74.19,4.1v27.57h-4.89V109.31a18.75,18.75,0,0,0-.79-6.46q-.78-1.95-3.57-1.95a4.82,4.82,0,0,0-3.26,1,6,6,0,0,0-1.73,2.56,11.73,11.73,0,0,0-.68,3.3c-.07,1.18-.11,2.27-.11,3.27v25h-4.88V76h4.88Z" fill="#00305e"></path>
    <path d="M406.2,97.52v24.19c0,1.3,0,2.58.11,3.83a11.87,11.87,0,0,0,.64,3.35,5.39,5.39,0,0,0,1.54,2.33,4.22,4.22,0,0,0,2.82.86,4.55,4.55,0,0,0,2.93-.86,5.06,5.06,0,0,0,1.54-2.33,14.47,14.47,0,0,0,.63-3.35c.1-1.25.16-2.53.16-3.83V97.52h4.88v28.32a12,12,0,0,1-2.44,7.85q-2.44,3-7.63,3c-3.46,0-6-1-7.63-2.93a12,12,0,0,1-2.44-7.89V97.52Z" fill="#00305e"></path>
    <path d="M433.06,136.06h-4.89V76h4.89Z" fill="#00305e"></path>
    <path d="M444,117.8v1.13c0,.95.06,2.18.19,3.68A20.26,20.26,0,0,0,445,127a10.91,10.91,0,0,0,1.8,3.61,3.81,3.81,0,0,0,3.19,1.5,3.48,3.48,0,0,0,2.56-1,6.53,6.53,0,0,0,1.5-2.4,12.44,12.44,0,0,0,.68-3c.09-1,.15-2,.15-2.7h5a22.69,22.69,0,0,1-.49,4.58,15.77,15.77,0,0,1-1.58,4.43,9.76,9.76,0,0,1-2.89,3.35,7.48,7.48,0,0,1-4.51,1.31,8.84,8.84,0,0,1-6.08-2,12.87,12.87,0,0,1-3.46-5,24.35,24.35,0,0,1-1.58-6.42,58.35,58.35,0,0,1-.37-6.35q0-1.73.15-3.87a40,40,0,0,1,.56-4.36,27.79,27.79,0,0,1,1.2-4.35,15.05,15.05,0,0,1,2-3.76,10,10,0,0,1,2.9-2.63,8.54,8.54,0,0,1,9.46.94,12.81,12.81,0,0,1,3.16,4.81,24.9,24.9,0,0,1,1.46,6,49.77,49.77,0,0,1,.38,5.74v2.33Zm11.27-4.13-.07-.67c-.05-.91-.12-2-.19-3.35a17.26,17.26,0,0,0-.64-3.79,8.17,8.17,0,0,0-1.62-3.08,3.68,3.68,0,0,0-3-1.28,3.49,3.49,0,0,0-2.86,1.43,10.73,10.73,0,0,0-1.76,3.38,19.46,19.46,0,0,0-.87,4,32.07,32.07,0,0,0-.22,3.34Z" fill="#00305e"></path>
    <path d="M235.43,177.3h-5v26.8h-3.85V177.3H223.3v-3.55h3.25v-8.93a13.44,13.44,0,0,1,1.22-6.18q1.2-2.32,4.46-2.33a10.9,10.9,0,0,1,1.69.14,7.38,7.38,0,0,1,1.68.51v4.2c-.43-.32-.86-.61-1.3-.89a2.64,2.64,0,0,0-1.48-.41,1.87,1.87,0,0,0-2,1.3,12.33,12.33,0,0,0-.41,3.55v9h5Z" fill="#00305e"></path>
    <path d="M242.68,173.75V192.8c0,1,0,2,.09,3a9,9,0,0,0,.5,2.63,4.15,4.15,0,0,0,1.21,1.83,3.33,3.33,0,0,0,2.22.68,3.54,3.54,0,0,0,2.3-.68,3.85,3.85,0,0,0,1.22-1.83,11.6,11.6,0,0,0,.5-2.63c.08-1,.12-2,.12-3V173.75h3.84v22.3a9.4,9.4,0,0,1-1.92,6.18q-1.92,2.34-6,2.34t-6-2.31a9.41,9.41,0,0,1-1.92-6.21v-22.3Zm-2.78-8.87a2.58,2.58,0,0,1,.8-1.92,2.72,2.72,0,1,1,3.84,3.84,2.72,2.72,0,0,1-4.64-1.92Zm8.28,0A2.58,2.58,0,0,1,249,163a2.72,2.72,0,1,1,3.84,3.84,2.72,2.72,0,0,1-4.64-1.92Z" fill="#00305e"></path>
    <path d="M263.83,177.78H264a11.05,11.05,0,0,1,.77-1.6,7.45,7.45,0,0,1,1.09-1.48,4.92,4.92,0,0,1,1.42-1,4,4,0,0,1,1.75-.39v4.5l-.77-.06a3.75,3.75,0,0,0-2.37.68,4.1,4.1,0,0,0-1.33,1.86A10.29,10.29,0,0,0,264,183c-.08,1.05-.12,2.18-.12,3.4V204.1H260V173.75h3.84Z" fill="#00305e"></path>
    <path d="M310.61,204.1h-3.78l-4.5-30c-.11-.79-.21-1.89-.29-3.31s-.16-2.74-.24-4h-.23q-.18,1.83-.33,4c-.1,1.44-.21,2.53-.32,3.28l-5.21,30h-3.79l-7.09-44.6h4.26l4,29.81c.16,1.1.28,2.21.38,3.31s.21,2.21.33,3.31H294c.15-1.1.28-2.2.38-3.31s.25-2.21.44-3.31L300,159.5h3.55l4.26,29.81c.15,1.1.3,2.21.44,3.31s.28,2.21.44,3.31h.24c.12-1.1.23-2.2.32-3.31s.25-2.21.45-3.31l4.61-29.81h4.2Z" fill="#00305e"></path>
    <path d="M327.52,164.76a2.84,2.84,0,0,1-.83,2,2.66,2.66,0,0,1-2,.86,2.75,2.75,0,0,1-2-.86,2.79,2.79,0,0,1-.86-2,2.72,2.72,0,0,1,.86-2,2.83,2.83,0,0,1,2-.82,2.73,2.73,0,0,1,2,.82A2.77,2.77,0,0,1,327.52,164.76Zm-.95,39.34h-3.84V173.75h3.84Z" fill="#00305e"></path>
    <path d="M335.91,177.78H336a11.05,11.05,0,0,1,.77-1.6,7.45,7.45,0,0,1,1.09-1.48,4.92,4.92,0,0,1,1.42-1,3.91,3.91,0,0,1,1.75-.39v4.5l-.77-.06a3.75,3.75,0,0,0-2.37.68,4.1,4.1,0,0,0-1.33,1.86A9.91,9.91,0,0,0,336,183c-.08,1.05-.12,2.18-.12,3.4V204.1h-3.84V173.75h3.84Z" fill="#00305e"></path>
    <path d="M356.07,177.3h-5v26.8H347.2V177.3H344v-3.55h3.25v-8.28H351v8.28h5Z" fill="#00305e"></path>
    <path d="M371.25,180h-.12a9.12,9.12,0,0,0-2.13-2.12,4.82,4.82,0,0,0-2.9-1,3.51,3.51,0,0,0-2.75,1.15,4.14,4.14,0,0,0-1,2.87,4.84,4.84,0,0,0,.41,2,7,7,0,0,0,1.12,1.72,14.44,14.44,0,0,0,1.6,1.51c.59.47,1.18,1,1.78,1.47s1.24,1,1.83,1.6a11,11,0,0,1,1.57,1.83,9.53,9.53,0,0,1,1.09,2.19,7.94,7.94,0,0,1,.42,2.66,9.47,9.47,0,0,1-.6,3.41,8.58,8.58,0,0,1-1.65,2.75,7.54,7.54,0,0,1-2.6,1.86,8.48,8.48,0,0,1-3.44.68A7.82,7.82,0,0,1,361,204a10.62,10.62,0,0,1-2.61-1.48V198a15.48,15.48,0,0,0,2.4,2.07,5,5,0,0,0,3,.89A4.09,4.09,0,0,0,367,199.6a4.71,4.71,0,0,0,1.21-3.25,5.42,5.42,0,0,0-.41-2.1,8.08,8.08,0,0,0-1.1-1.84,13.32,13.32,0,0,0-1.56-1.65l-1.84-1.63q-.88-.76-1.77-1.65a17.41,17.41,0,0,1-1.6-1.87,8.49,8.49,0,0,1-1.12-2.1,7,7,0,0,1-.42-2.48,7.74,7.74,0,0,1,2.07-5.59,7.28,7.28,0,0,1,5.5-2.16,7.55,7.55,0,0,1,2.81.53,11.23,11.23,0,0,1,2.52,1.42Z" fill="#00305e"></path>
    <path d="M388.64,178.9a9.12,9.12,0,0,0-1.62-1.39,3.63,3.63,0,0,0-2-.62,3.5,3.5,0,0,0-3,1.39,10.11,10.11,0,0,0-1.63,3.34,19.9,19.9,0,0,0-.71,4c-.1,1.38-.15,2.51-.15,3.37s.06,1.8.18,3.14a23.15,23.15,0,0,0,.71,4,10.64,10.64,0,0,0,1.57,3.4,3.2,3.2,0,0,0,2.75,1.45,3.08,3.08,0,0,0,2.25-.86,10.37,10.37,0,0,0,1.53-1.86h.12V203a6.05,6.05,0,0,1-2,1.12,7.14,7.14,0,0,1-2.33.42,5.89,5.89,0,0,1-4.29-1.63,11.57,11.57,0,0,1-2.66-3.93A19.79,19.79,0,0,1,376,194.1a31.14,31.14,0,0,1-.39-4.55c0-1,0-2,.12-3.2a30,30,0,0,1,.47-3.58,23.86,23.86,0,0,1,1-3.52,12,12,0,0,1,1.6-3,7.49,7.49,0,0,1,2.36-2.13,6.63,6.63,0,0,1,3.34-.8,8.15,8.15,0,0,1,2.16.3,7.41,7.41,0,0,1,2,.88Z" fill="#00305e"></path>
    <path d="M396.66,176.18a8.68,8.68,0,0,1,2.69-2.13,7.14,7.14,0,0,1,3.28-.77,5.6,5.6,0,0,1,3.25.83,5,5,0,0,1,1.75,2.13,9.69,9.69,0,0,1,.71,2.93c.1,1.08.15,2.15.15,3.22V204.1h-3.85V183A15,15,0,0,0,404,178c-.41-1-1.35-1.53-2.81-1.53a3.8,3.8,0,0,0-2.57.79,4.83,4.83,0,0,0-1.36,2,8.71,8.71,0,0,0-.53,2.6c-.06.92-.09,1.78-.09,2.57v19.7h-3.85V156.78h3.85Z" fill="#00305e"></path>
    <path d="M429.46,204.1h-3.84v-2.37h-.12a6.29,6.29,0,0,1-2.1,2.07,5.57,5.57,0,0,1-2.93.77,7.69,7.69,0,0,1-3.19-.62,4.9,4.9,0,0,1-2.25-2.4,16.47,16.47,0,0,1-1.33-4.88,60.26,60.26,0,0,1-.44-8.07c0-1.7.05-3.45.15-5.26a18.57,18.57,0,0,1,.88-4.94,9,9,0,0,1,2.25-3.67,5.94,5.94,0,0,1,4.29-1.45,5.23,5.23,0,0,1,2.69.65,6.78,6.78,0,0,1,2,1.89h.12v-2.07h3.84ZM426,188.42c0-1.65-.05-3.2-.14-4.64a20.89,20.89,0,0,0-.59-3.82,6.39,6.39,0,0,0-1.28-2.6,2.82,2.82,0,0,0-2.24-.94,3.07,3.07,0,0,0-2.52,1.12,7.44,7.44,0,0,0-1.36,2.87,19.23,19.23,0,0,0-.53,3.84q-.09,2.1-.09,4.05a57.81,57.81,0,0,0,.36,7.37,14.35,14.35,0,0,0,.94,3.9,2.82,2.82,0,0,0,1.39,1.57,4.64,4.64,0,0,0,1.63.29,3.54,3.54,0,0,0,2.28-.68,4.43,4.43,0,0,0,1.33-2.24,19.68,19.68,0,0,0,.65-4C425.92,192.8,426,190.79,426,188.42Z" fill="#00305e"></path>
    <path d="M445,177.3h-5v26.8h-3.85V177.3H432.9v-3.55h3.25v-8.93a13.44,13.44,0,0,1,1.22-6.18q1.2-2.32,4.46-2.33a10.9,10.9,0,0,1,1.69.14,7.38,7.38,0,0,1,1.68.51v4.2c-.43-.32-.86-.61-1.3-.89a2.66,2.66,0,0,0-1.48-.41,1.87,1.87,0,0,0-2,1.3,12.33,12.33,0,0,0-.41,3.55v9h5Z" fill="#00305e"></path>
    <path d="M459.9,177.3h-5v26.8H451V177.3h-3.25v-3.55H451v-8.28h3.84v8.28h5Z" fill="#00305e"></path>
    <path d="M479.77,173.75V192.8c0,1,0,2,.09,3a9.75,9.75,0,0,0,.5,2.63,4.16,4.16,0,0,0,1.22,1.83,3.32,3.32,0,0,0,2.21.68,3.55,3.55,0,0,0,2.31-.68,3.84,3.84,0,0,0,1.21-1.83,11.06,11.06,0,0,0,.51-2.63c.07-1,.11-2,.11-3V173.75h3.85v22.3a9.4,9.4,0,0,1-1.92,6.18q-1.94,2.34-6,2.34t-6-2.31a9.41,9.41,0,0,1-1.92-6.21v-22.3Z" fill="#00305e"></path>
    <path d="M500.93,176.18a8.68,8.68,0,0,1,2.69-2.13,7.14,7.14,0,0,1,3.28-.77,5.48,5.48,0,0,1,3.19.83,5.15,5.15,0,0,1,1.78,2.16,9.46,9.46,0,0,1,.74,3c.1,1.08.15,2.13.15,3.16V204.1h-3.85V182.8c0-.9,0-1.74-.09-2.51a6.48,6.48,0,0,0-.44-2,3.11,3.11,0,0,0-1-1.36,3,3,0,0,0-1.86-.5,3.8,3.8,0,0,0-2.57.79,4.83,4.83,0,0,0-1.36,2,9,9,0,0,0-.53,2.6c-.06.92-.09,1.78-.09,2.57v19.7h-3.85V173.75h3.85Z" fill="#00305e"></path>
    <path d="M529.83,201.73h-.12a6.29,6.29,0,0,1-2.1,2.07,5.56,5.56,0,0,1-2.92.77,5.31,5.31,0,0,1-3.79-1.33,8.58,8.58,0,0,1-2.19-3.55,20.5,20.5,0,0,1-1-5.09q-.24-2.86-.24-6t.24-5.89a17.48,17.48,0,0,1,1-4.87,8,8,0,0,1,2.28-3.32,6.08,6.08,0,0,1,4-1.24,5.23,5.23,0,0,1,2.69.65,6.78,6.78,0,0,1,2,1.89h.12v-19h3.85V204.1h-3.85Zm.36-13.31c0-1.73-.06-3.33-.18-4.79a21,21,0,0,0-.62-3.78,6,6,0,0,0-1.3-2.52,2.86,2.86,0,0,0-2.16-.91,3,3,0,0,0-2.52,1.24,8.57,8.57,0,0,0-1.36,3.07,21,21,0,0,0-.53,3.91q-.09,2.07-.09,3.66c0,.48,0,1.13,0,2s0,1.73.06,2.72.16,2,.3,3a12.17,12.17,0,0,0,.68,2.72,5.46,5.46,0,0,0,1.27,2,2.82,2.82,0,0,0,2,.76,3.21,3.21,0,0,0,2.42-.91,5.76,5.76,0,0,0,1.34-2.6,20.82,20.82,0,0,0,.56-4.09C530.15,192.24,530.19,190.43,530.19,188.42Z" fill="#00305e"></path>
    <path d="M572.71,190q0,3.07-.24,5.77a13.39,13.39,0,0,1-1.18,4.67,7.28,7.28,0,0,1-2.81,3.13,12,12,0,0,1-10.35,0,7.24,7.24,0,0,1-2.78-3.19,13.87,13.87,0,0,1-1.12-4.67c-.14-1.78-.21-3.67-.21-5.68V159.5h4.14v30.22c0,1.86.05,3.46.15,4.82a11.59,11.59,0,0,0,.68,3.4,4.18,4.18,0,0,0,1.57,2.05,6.13,6.13,0,0,0,5.61,0,4.18,4.18,0,0,0,1.57-2.05,11.59,11.59,0,0,0,.68-3.4c.1-1.36.15-3,.15-4.82V159.5h4.14Z" fill="#00305e"></path>
    <path d="M582.47,176.3h.12a7.6,7.6,0,0,1,2.52-2.19,6.6,6.6,0,0,1,3.22-.83,6.14,6.14,0,0,1,3.37.95,5.94,5.94,0,0,1,2.25,2.66,9.3,9.3,0,0,1,2.69-2.66,6.62,6.62,0,0,1,3.58-.95,6.23,6.23,0,0,1,3.34.77,4.87,4.87,0,0,1,1.83,2,8.6,8.6,0,0,1,.8,2.9,29.77,29.77,0,0,1,.18,3.28V204.1h-3.85V182.39c0-.71,0-1.43-.08-2.16a6,6,0,0,0-.45-1.92,3.33,3.33,0,0,0-1-1.36,3,3,0,0,0-1.87-.53,3.83,3.83,0,0,0-2.66.85,5.12,5.12,0,0,0-1.39,2.19,11.47,11.47,0,0,0-.53,2.93c-.06,1.06-.09,2.07-.09,3V204.1h-3.84V182.45q0-1.06-.09-2.13a7.74,7.74,0,0,0-.41-1.95,3.26,3.26,0,0,0-1-1.42,2.79,2.79,0,0,0-1.83-.53,3.63,3.63,0,0,0-2.73,1,6.09,6.09,0,0,0-1.41,2.43,11.91,11.91,0,0,0-.57,3.13c-.06,1.13-.09,2.16-.09,3.11v18h-3.84V173.75h3.84Z" fill="#00305e"></path>
    <path d="M631.42,204.1h-4l-3.5-22c-.07-.55-.12-1.09-.14-1.62a15.43,15.43,0,0,0-.15-1.63h-.18c-.08.91-.16,1.83-.23,2.75s-.2,1.84-.36,2.75l-3.25,19.76h-3.91l-6.15-30.35h3.91l2.89,17.93c.2,1.14.41,2.28.63,3.43s.42,2.28.62,3.43h.23c.16-1.15.3-2.29.42-3.43s.27-2.29.47-3.43l3-17.93h3.9l3.2,21c.07.63.16,1.26.26,1.89s.19,1.27.27,1.9h.17c.16-1,.3-2,.42-3s.27-2,.47-3l3.79-18.87h3.9Z" fill="#00305e"></path>
    <path d="M644.2,189.72v.89c0,.75,0,1.72.15,2.9a16.91,16.91,0,0,0,.65,3.43,8.9,8.9,0,0,0,1.42,2.84,3,3,0,0,0,2.52,1.18,2.71,2.71,0,0,0,2-.77,5.19,5.19,0,0,0,1.18-1.89,9.73,9.73,0,0,0,.53-2.37q.12-1.23.12-2.13h4a18.55,18.55,0,0,1-.38,3.61,12.8,12.8,0,0,1-1.24,3.49,7.74,7.74,0,0,1-2.28,2.63,5.88,5.88,0,0,1-3.55,1A7,7,0,0,1,644.5,203a10.16,10.16,0,0,1-2.72-3.93,18.94,18.94,0,0,1-1.24-5.06,45.25,45.25,0,0,1-.3-5c0-.9,0-1.92.12-3a31.88,31.88,0,0,1,.44-3.43,21.83,21.83,0,0,1,1-3.43,11.54,11.54,0,0,1,1.57-3,7.85,7.85,0,0,1,2.27-2.07,6.09,6.09,0,0,1,3.17-.8,6,6,0,0,1,4.29,1.54,10.08,10.08,0,0,1,2.48,3.78,19.57,19.57,0,0,1,1.15,4.77,38.4,38.4,0,0,1,.3,4.52v1.83Zm8.88-3.25-.06-.53c0-.71-.09-1.59-.15-2.63a13.74,13.74,0,0,0-.5-3,6.5,6.5,0,0,0-1.28-2.43,2.9,2.9,0,0,0-2.33-1,2.74,2.74,0,0,0-2.25,1.12,8.72,8.72,0,0,0-1.39,2.66,16.12,16.12,0,0,0-.68,3.17,24.92,24.92,0,0,0-.18,2.63Z" fill="#00305e"></path>
    <path d="M665.47,204.1h-3.84V156.78h3.84Z" fill="#00305e"></path>
    <path d="M681.49,177.3h-5v26.8h-3.85V177.3h-3.25v-3.55h3.25v-8.28h3.85v8.28h5Z" fill="#00305e"></path>
    <path d="M245.42,271.37h-3.61l-10.05-30a24.45,24.45,0,0,1-.8-2.83c-.22-1-.46-2-.74-2.9H230c.08,1.46.18,2.9.3,4.31s.18,2.86.18,4.32v27.09h-3.61V226.78h3.61l10.23,31c.27.79.52,1.56.74,2.3s.42,1.52.62,2.31h.18c-.08-1-.17-2-.27-3a29.14,29.14,0,0,1-.15-2.95V226.78h3.61Z" fill="#00305e"></path>
    <path d="M255.38,241v19c0,1,0,2,.09,3a9.68,9.68,0,0,0,.5,2.63,4.33,4.33,0,0,0,1.21,1.84,3.36,3.36,0,0,0,2.22.68,3.55,3.55,0,0,0,2.31-.68,3.92,3.92,0,0,0,1.21-1.84,11,11,0,0,0,.5-2.63c.08-1,.12-2,.12-3V241h3.85v22.3a9.38,9.38,0,0,1-1.93,6.18c-1.28,1.56-3.28,2.33-6,2.33s-4.72-.77-6-2.3a9.41,9.41,0,0,1-1.92-6.21V241Zm-2.78-8.87a2.62,2.62,0,0,1,.8-1.92,2.72,2.72,0,1,1,3.84,3.84,2.72,2.72,0,0,1-4.64-1.92Zm8.28,0a2.62,2.62,0,0,1,.8-1.92,2.72,2.72,0,1,1,3.84,3.84,2.72,2.72,0,0,1-4.64-1.92Z" fill="#00305e"></path>
    <path d="M276.71,245.05h.12a13.57,13.57,0,0,1,.77-1.6,7.42,7.42,0,0,1,1.1-1.47,4.69,4.69,0,0,1,1.42-1,3.89,3.89,0,0,1,1.74-.38v4.49l-.77-.06a3.83,3.83,0,0,0-2.37.68,4.18,4.18,0,0,0-1.33,1.87,10.12,10.12,0,0,0-.56,2.75c-.08,1-.12,2.17-.12,3.4v17.68h-3.84V241h3.84Z" fill="#00305e"></path>
    <path d="M297.05,244.58h-5v26.79h-3.85V244.58h-3.25V241h3.25v-8.28H292V241h5Z" fill="#00305e"></path>
    <path d="M305.13,232a2.8,2.8,0,0,1-.83,2,2.69,2.69,0,0,1-2,.86,2.94,2.94,0,0,1-2.9-2.9,2.69,2.69,0,0,1,.86-2,2.84,2.84,0,0,1,2-.83,2.74,2.74,0,0,1,2,.83A2.7,2.7,0,0,1,305.13,232Zm-.94,39.33h-3.85V241h3.85Z" fill="#00305e"></path>
    <path d="M313.7,243.45a9.24,9.24,0,0,1,2.69-2.13,7.17,7.17,0,0,1,3.29-.76,5.48,5.48,0,0,1,3.19.82,5.17,5.17,0,0,1,1.77,2.16,9.26,9.26,0,0,1,.74,3c.1,1.09.15,2.14.15,3.16v21.71h-3.84V250.08c0-.91,0-1.75-.09-2.51a6.6,6.6,0,0,0-.45-2,3.14,3.14,0,0,0-1-1.36,3.11,3.11,0,0,0-1.86-.5,3.81,3.81,0,0,0-2.58.8,4.82,4.82,0,0,0-1.36,2,9.53,9.53,0,0,0-.53,2.6q-.09,1.4-.09,2.58v19.69h-3.84V241h3.84Z" fill="#00305e"></path>
    <path d="M346.86,272.49c0,1.42-.05,2.79-.15,4.12a8.93,8.93,0,0,1-.92,3.48,5.81,5.81,0,0,1-2.36,2.43,9.16,9.16,0,0,1-4.5.92q-4,0-5.91-2.25a9.27,9.27,0,0,1-1.89-6.15v-1.13H335v.54a11.22,11.22,0,0,0,.18,2,5,5,0,0,0,.61,1.71,3.32,3.32,0,0,0,1.23,1.18,4.09,4.09,0,0,0,2,.45,3.85,3.85,0,0,0,2.41-.65,3.56,3.56,0,0,0,1.17-1.66,6.64,6.64,0,0,0,.35-2.25v-6a6.25,6.25,0,0,1-4.91,2.13,5.66,5.66,0,0,1-4.4-1.71,10.43,10.43,0,0,1-2.28-4.2,23.83,23.83,0,0,1-.86-5.21c-.09-1.81-.14-3.39-.14-4.73s.06-2.75.2-4.47a21.19,21.19,0,0,1,1-4.9,10.58,10.58,0,0,1,2.28-4,5.4,5.4,0,0,1,4.17-1.62,5.81,5.81,0,0,1,2.81.68,6,6,0,0,1,2.1,1.86H343V241h3.85ZM334.32,256.7c0,.83,0,1.9.06,3.2a19.3,19.3,0,0,0,.5,3.81,8.92,8.92,0,0,0,1.42,3.2,3.29,3.29,0,0,0,2.81,1.33,2.94,2.94,0,0,0,2.39-1,6.71,6.71,0,0,0,1.28-2.78,21.6,21.6,0,0,0,.5-4c.06-1.52.09-3.11.09-4.76q0-2.07-.12-4.2a18.86,18.86,0,0,0-.59-3.85,7.71,7.71,0,0,0-1.36-2.8,3,3,0,0,0-2.49-1.1,3.78,3.78,0,0,0-1.89.47,3.66,3.66,0,0,0-1.39,1.87,16.8,16.8,0,0,0-.89,4A57.29,57.29,0,0,0,334.32,256.7Z" fill="#00305e"></path>
    <path d="M355.57,257v.89c0,.75.05,1.71.15,2.89a16.13,16.13,0,0,0,.65,3.43,8.6,8.6,0,0,0,1.42,2.84,3,3,0,0,0,2.51,1.19,2.72,2.72,0,0,0,2-.77,5.25,5.25,0,0,0,1.19-1.9,9.54,9.54,0,0,0,.53-2.36q.12-1.24.12-2.13h4a17.92,17.92,0,0,1-.39,3.61,12.59,12.59,0,0,1-1.24,3.49,7.81,7.81,0,0,1-2.27,2.63,5.87,5.87,0,0,1-3.55,1,7,7,0,0,1-4.79-1.56,10.17,10.17,0,0,1-2.72-3.94,18.88,18.88,0,0,1-1.25-5,47.84,47.84,0,0,1-.29-5c0-.91,0-1.92.12-3.05a28,28,0,0,1,.44-3.43,21.07,21.07,0,0,1,.95-3.43,11.69,11.69,0,0,1,1.56-3,8,8,0,0,1,2.28-2.07,6.75,6.75,0,0,1,7.45.74,10.14,10.14,0,0,1,2.49,3.79,20,20,0,0,1,1.15,4.76,38.56,38.56,0,0,1,.3,4.53V257Zm8.87-3.25-.06-.54-.15-2.63a12.72,12.72,0,0,0-.5-3,6.43,6.43,0,0,0-1.27-2.42,2.91,2.91,0,0,0-2.34-1,2.74,2.74,0,0,0-2.24,1.13,8.4,8.4,0,0,0-1.39,2.66,14.84,14.84,0,0,0-.68,3.16,25.25,25.25,0,0,0-.18,2.64Z" fill="#00305e"></path>
    <path d="M377,243.45a9.15,9.15,0,0,1,2.7-2.13,7.1,7.1,0,0,1,3.28-.76,5.48,5.48,0,0,1,3.19.82,5.27,5.27,0,0,1,1.78,2.16,9.53,9.53,0,0,1,.74,3c.09,1.09.14,2.14.14,3.16v21.71H385V250.08c0-.91,0-1.75-.09-2.51a6.92,6.92,0,0,0-.44-2,3.24,3.24,0,0,0-1-1.36,3.09,3.09,0,0,0-1.86-.5,3.78,3.78,0,0,0-2.57.8,4.75,4.75,0,0,0-1.37,2,9.53,9.53,0,0,0-.53,2.6q-.09,1.4-.09,2.58v19.69h-3.84V241H377Z" fill="#00305e"></path>
    <path d="M392.58,250.14h9.22v4.67h-9.22Z" fill="#00305e"></path>
    <path d="M415.28,247.83h10.17v8.22c0,1.78-.07,3.6-.2,5.47a17.3,17.3,0,0,1-1.13,5.12,8.75,8.75,0,0,1-2.87,3.81,8.56,8.56,0,0,1-5.38,1.51,8.26,8.26,0,0,1-5.59-1.77,10.86,10.86,0,0,1-3.07-4.94,30.92,30.92,0,0,1-1.33-7.57q-.3-4.41-.3-9.67c0-2.64.12-5.27.36-7.87a28.67,28.67,0,0,1,1.45-7,11.85,11.85,0,0,1,3.22-5,8.16,8.16,0,0,1,5.68-1.93,9.3,9.3,0,0,1,3.52.62,7.79,7.79,0,0,1,2.6,1.75,10,10,0,0,1,1.83,2.66,16.3,16.3,0,0,1,1.16,3.37l-4.09,1.6a15.51,15.51,0,0,0-.5-2.07,7.35,7.35,0,0,0-.89-1.92,4.83,4.83,0,0,0-1.39-1.42,3.55,3.55,0,0,0-2.07-.56,4.44,4.44,0,0,0-3.63,1.62,10.65,10.65,0,0,0-2,4.17,29.28,29.28,0,0,0-.83,5.62q-.18,3.07-.18,6,0,6.21.38,10.15a27.34,27.34,0,0,0,1.19,6.18,6.18,6.18,0,0,0,2,3.1,4.75,4.75,0,0,0,2.81.86,5,5,0,0,0,2.78-.68,4.1,4.1,0,0,0,1.51-2.22,16.65,16.65,0,0,0,.65-4q.13-2.49.14-6v-3.37h-6Z" fill="#00305e"></path>
    <path d="M433.82,257v.89c0,.75.05,1.71.14,2.89a16.78,16.78,0,0,0,.65,3.43,8.8,8.8,0,0,0,1.42,2.84,3,3,0,0,0,2.52,1.19,2.72,2.72,0,0,0,2-.77,5.23,5.23,0,0,0,1.18-1.9,9.12,9.12,0,0,0,.53-2.36q.12-1.24.12-2.13h4a17.88,17.88,0,0,1-.38,3.61,12.92,12.92,0,0,1-1.24,3.49,7.73,7.73,0,0,1-2.28,2.63,5.87,5.87,0,0,1-3.55,1,7,7,0,0,1-4.79-1.56,10.27,10.27,0,0,1-2.72-3.94,19.26,19.26,0,0,1-1.24-5,45.4,45.4,0,0,1-.3-5c0-.91,0-1.92.12-3.05a30.17,30.17,0,0,1,.45-3.43,21,21,0,0,1,.94-3.43,12,12,0,0,1,1.57-3,8,8,0,0,1,2.28-2.07,6.75,6.75,0,0,1,7.45.74,10.12,10.12,0,0,1,2.48,3.79,20,20,0,0,1,1.16,4.76,40.66,40.66,0,0,1,.29,4.53V257Zm8.87-3.25-.06-.54-.15-2.63a13.84,13.84,0,0,0-.5-3,6.58,6.58,0,0,0-1.27-2.42,2.93,2.93,0,0,0-2.34-1,2.75,2.75,0,0,0-2.25,1.13,8.6,8.6,0,0,0-1.39,2.66,16.18,16.18,0,0,0-.68,3.16,24.8,24.8,0,0,0-.17,2.64Z" fill="#00305e"></path>
    <path d="M456.1,232a2.8,2.8,0,0,1-.83,2,2.69,2.69,0,0,1-2,.86,2.94,2.94,0,0,1-2.9-2.9,2.69,2.69,0,0,1,.86-2,2.84,2.84,0,0,1,2-.83,2.74,2.74,0,0,1,2,.83A2.7,2.7,0,0,1,456.1,232Zm-.94,39.33h-3.85V241h3.85Z" fill="#00305e"></path>
    <path d="M472.29,247.24h-.12a9,9,0,0,0-2.13-2.13,4.82,4.82,0,0,0-2.9-1,3.52,3.52,0,0,0-2.75,1.16,4.13,4.13,0,0,0-1,2.87,4.84,4.84,0,0,0,.41,2,6.68,6.68,0,0,0,1.13,1.71,12.73,12.73,0,0,0,1.59,1.51c.59.47,1.19,1,1.78,1.48s1.24,1,1.83,1.6a11,11,0,0,1,1.57,1.83,9.33,9.33,0,0,1,1.09,2.19,7.9,7.9,0,0,1,.42,2.66,9.64,9.64,0,0,1-.59,3.4,8.68,8.68,0,0,1-1.66,2.75,7.54,7.54,0,0,1-2.6,1.86,8.3,8.3,0,0,1-3.43.68,7.63,7.63,0,0,1-2.9-.59,9.79,9.79,0,0,1-2.6-1.48v-4.49a15,15,0,0,0,2.39,2.07,5.1,5.1,0,0,0,3,.89,4.12,4.12,0,0,0,3.22-1.36,4.74,4.74,0,0,0,1.21-3.26,5.24,5.24,0,0,0-.41-2.1,8.12,8.12,0,0,0-1.09-1.83,15.14,15.14,0,0,0-1.57-1.66c-.59-.53-1.21-1.07-1.84-1.62s-1.18-1.07-1.77-1.66a16.4,16.4,0,0,1-1.6-1.86,8.83,8.83,0,0,1-1.12-2.1,7.07,7.07,0,0,1-.41-2.49,7.76,7.76,0,0,1,2.07-5.59,7.29,7.29,0,0,1,5.5-2.15,7.43,7.43,0,0,1,2.81.53,11,11,0,0,1,2.51,1.42Z" fill="#00305e"></path>
    <path d="M481.27,271.37h-3.85V224.05h3.85Z" fill="#00305e"></path>
    <path d="M491.73,232a2.84,2.84,0,0,1-.83,2,2.69,2.69,0,0,1-2,.86A2.94,2.94,0,0,1,486,232a2.69,2.69,0,0,1,.86-2,2.84,2.84,0,0,1,2-.83,2.83,2.83,0,0,1,2.84,2.84Zm-1,39.33h-3.84V241h3.84Z" fill="#00305e"></path>
    <path d="M500.3,243.45a9.24,9.24,0,0,1,2.69-2.13,7.16,7.16,0,0,1,3.28-.76,5.52,5.52,0,0,1,3.2.82,5.17,5.17,0,0,1,1.77,2.16,9.26,9.26,0,0,1,.74,3c.1,1.09.15,2.14.15,3.16v21.71h-3.85V250.08c0-.91,0-1.75-.08-2.51a6.6,6.6,0,0,0-.45-2,2.8,2.8,0,0,0-2.9-1.86,3.8,3.8,0,0,0-2.57.8,4.82,4.82,0,0,0-1.36,2,9.53,9.53,0,0,0-.53,2.6q-.09,1.4-.09,2.58v19.69h-3.84V241h3.84Z" fill="#00305e"></path>
    <path d="M533.46,272.49c0,1.42-.05,2.79-.15,4.12a9.11,9.11,0,0,1-.92,3.48,5.81,5.81,0,0,1-2.36,2.43,9.16,9.16,0,0,1-4.5.92q-4,0-5.91-2.25a9.22,9.22,0,0,1-1.9-6.15v-1.13h3.85v.54a12.21,12.21,0,0,0,.17,2,5.18,5.18,0,0,0,.62,1.71,3.18,3.18,0,0,0,1.23,1.18,4.09,4.09,0,0,0,2,.45,3.85,3.85,0,0,0,2.41-.65,3.64,3.64,0,0,0,1.17-1.66,6.64,6.64,0,0,0,.35-2.25v-6a6.25,6.25,0,0,1-4.91,2.13,5.66,5.66,0,0,1-4.4-1.71,10.31,10.31,0,0,1-2.28-4.2,23.83,23.83,0,0,1-.86-5.21c-.1-1.81-.14-3.39-.14-4.73s.06-2.75.2-4.47a21.19,21.19,0,0,1,1-4.9,10.58,10.58,0,0,1,2.28-4,5.4,5.4,0,0,1,4.17-1.62,5.74,5.74,0,0,1,2.8.68,5.87,5.87,0,0,1,2.1,1.86h.12V241h3.85ZM520.92,256.7c0,.83,0,1.9.06,3.2a18.58,18.58,0,0,0,.5,3.81,8.92,8.92,0,0,0,1.42,3.2,3.29,3.29,0,0,0,2.81,1.33,2.94,2.94,0,0,0,2.39-1,6.84,6.84,0,0,0,1.28-2.78,21.6,21.6,0,0,0,.5-4c.06-1.52.09-3.11.09-4.76q0-2.07-.12-4.2a18.86,18.86,0,0,0-.59-3.85,7.71,7.71,0,0,0-1.36-2.8,3,3,0,0,0-2.49-1.1,3.78,3.78,0,0,0-1.89.47,3.6,3.6,0,0,0-1.39,1.87,16.31,16.31,0,0,0-.89,4A57.29,57.29,0,0,0,520.92,256.7Z" fill="#00305e"></path>
    <path d="M542.17,257v.89c0,.75.05,1.71.15,2.89a15.53,15.53,0,0,0,.65,3.43,8.41,8.41,0,0,0,1.42,2.84,3,3,0,0,0,2.51,1.19,2.72,2.72,0,0,0,2-.77,5.1,5.1,0,0,0,1.18-1.9,9.12,9.12,0,0,0,.54-2.36c.07-.83.11-1.54.11-2.13h4a17.92,17.92,0,0,1-.39,3.61,12.59,12.59,0,0,1-1.24,3.49,7.73,7.73,0,0,1-2.28,2.63,5.85,5.85,0,0,1-3.55,1,7,7,0,0,1-4.79-1.56,10.27,10.27,0,0,1-2.72-3.94,19.26,19.26,0,0,1-1.24-5,45.25,45.25,0,0,1-.29-5c0-.91,0-1.92.11-3.05a30.17,30.17,0,0,1,.45-3.43,21,21,0,0,1,.94-3.43,12,12,0,0,1,1.57-3,8,8,0,0,1,2.28-2.07,6.75,6.75,0,0,1,7.45.74,10.12,10.12,0,0,1,2.48,3.79,19.5,19.5,0,0,1,1.16,4.76,40.66,40.66,0,0,1,.29,4.53V257Zm8.87-3.25-.06-.54-.15-2.63a13.26,13.26,0,0,0-.5-3,6.58,6.58,0,0,0-1.27-2.42,2.91,2.91,0,0,0-2.34-1,2.76,2.76,0,0,0-2.25,1.13,8.38,8.38,0,0,0-1.38,2.66,15.5,15.5,0,0,0-.69,3.16c-.11,1.09-.17,2-.17,2.64Z" fill="#00305e"></path>
    <path d="M563.57,243.45a9.24,9.24,0,0,1,2.69-2.13,7.16,7.16,0,0,1,3.28-.76,5.52,5.52,0,0,1,3.2.82,5.17,5.17,0,0,1,1.77,2.16,9.26,9.26,0,0,1,.74,3c.1,1.09.15,2.14.15,3.16v21.71h-3.84V250.08c0-.91,0-1.75-.09-2.51a6.6,6.6,0,0,0-.45-2,3.14,3.14,0,0,0-1-1.36,3.11,3.11,0,0,0-1.86-.5,3.81,3.81,0,0,0-2.58.8,4.82,4.82,0,0,0-1.36,2,9.53,9.53,0,0,0-.53,2.6q-.09,1.4-.09,2.58v19.69h-3.84V241h3.84Z" fill="#00305e"></path>
  </g>
</svg>